<svg xmlns="http://www.w3.org/2000/svg" xmlns:xlink="http://www.w3.org/1999/xlink" width="1080" zoomAndPan="magnify" viewBox="0 0 810 809.999993" height="1080" preserveAspectRatio="xMidYMid meet" version="1.0"><path fill="#ffffff" d="M 0 27 L 0 783 C 0 797.902344 12.097656 810 27 810 L 783 810 C 797.902344 810 810 797.902344 810 783 L 810 27 C 810 12.097656 797.902344 0 783 0 L 27 0 C 12.097656 0 0 12.097656 0 27 Z M 756 432 L 432 432 L 432 756 L 756 756 Z M 378 756 L 378 432 L 54 432 L 54 756 Z M 216 555.820312 L 158.734375 498.527344 C 148.175781 487.996094 131.085938 487.996094 120.527344 498.527344 C 109.996094 509.085938 109.996094 526.175781 120.527344 536.734375 L 177.820312 594 L 120.527344 651.265625 C 109.996094 661.824219 109.996094 678.914062 120.527344 689.472656 C 131.085938 700.003906 148.175781 700.003906 158.734375 689.472656 L 216 632.179688 L 273.265625 689.472656 C 283.824219 700.003906 300.914062 700.003906 311.472656 689.472656 C 322.003906 678.914062 322.003906 661.824219 311.472656 651.265625 L 254.179688 594 L 311.472656 536.734375 C 322.003906 526.175781 322.003906 509.085938 311.472656 498.527344 C 300.914062 487.996094 283.824219 487.996094 273.265625 498.527344 Z M 486 675 L 702 675 C 716.902344 675 729 662.902344 729 648 C 729 633.097656 716.902344 621 702 621 L 486 621 C 471.097656 621 459 633.097656 459 648 C 459 662.902344 471.097656 675 486 675 Z M 486 567 L 702 567 C 716.902344 567 729 554.902344 729 540 C 729 525.097656 716.902344 513 702 513 L 486 513 C 471.097656 513 459 525.097656 459 540 C 459 554.902344 471.097656 567 486 567 Z M 54 54 L 54 378 L 378 378 L 378 54 Z M 432 54 L 432 378 L 756 378 L 756 54 Z M 189 189 L 108 189 C 93.097656 189 81 201.097656 81 216 C 81 230.902344 93.097656 243 108 243 L 189 243 L 189 324 C 189 338.902344 201.097656 351 216 351 C 230.902344 351 243 338.902344 243 324 L 243 243 L 324 243 C 338.902344 243 351 230.902344 351 216 C 351 201.097656 338.902344 189 324 189 L 243 189 L 243 108 C 243 93.097656 230.902344 81 216 81 C 201.097656 81 189 93.097656 189 108 Z M 486 243 L 702 243 C 716.902344 243 729 230.902344 729 216 C 729 201.097656 716.902344 189 702 189 L 486 189 C 471.097656 189 459 201.097656 459 216 C 459 230.902344 471.097656 243 486 243 Z M 486 243 " fill-opacity="1" fill-rule="evenodd"/></svg>